<?xml version="1.0" encoding="UTF-8"?>
<svg id="Layer_1" xmlns="http://www.w3.org/2000/svg" version="1.1" viewBox="0 0 822.7 207.8">
  <!-- Generator: Adobe Illustrator 29.1.0, SVG Export Plug-In . SVG Version: 2.1.0 Build 142)  -->
  <defs>
    <style>
      .st0 {
        fill: #fff;
      }
    </style>
  </defs>
  <g>
    <path class="st0" d="M120.7,83.6v19.6c-4,1-8.1,1.5-11.9,1.5-16.8,0-30.2-9.2-30.2-28.6s10.8-28.3,27.3-28.3,20.4,7.1,24.3,12.1l-3-15.3c-7.3-2-14.8-2.7-19.8-2.7-26.1,0-38.4,17.7-38.4,35.9s14.2,33,35.4,33,12.6-1.1,18.3-3.9l7.1,4v-27.2l3.7-7.1h-17l4.4,7.1Z"/>
    <path class="st0" d="M194.2,43h-10.8l3.8,6.9-24.8,53.1-6.1,6.8h17.2l-4.4-6.1,9-21h23.9l9,20.9-4,6.2h19.5l-6-7-26.2-59.8ZM180.2,77.5l9.7-22.5,9.8,22.5h-19.4Z"/>
    <path class="st0" d="M265.6,94.2v-44.1l4.4-7.1h-17.8l4.4,7.1v52.4l-4.4,7.3h43.6l3.8-10.3c-10.2,2.2-22.1,4.1-33.6,4.8-.3-2.9-.4-6.2-.4-10.1Z"/>
    <path class="st0" d="M753.8,109.8l-6-7-26.2-59.8h-10.8l3.8,6.9-24.8,53.1-6.1,6.8h17.2l-4.4-6.1,9-21h23.9l9,20.9-4,6.2h19.5ZM707.5,77.5l9.7-22.5,9.8,22.5h-19.4Z"/>
    <path class="st0" d="M544.5,62.1c0-12.3-10-19-30.5-19h-21l4.4,7.1v52.4l-4.4,7.3h17.7l-4.4-7.3v-22.4l34.4,29.7h14.5l-37-28.7c17.3-1,26.2-8.2,26.2-19ZM506.4,76.8v-18.2c0-3.3,0-7,.4-10.3h7.4c14.3,0,20.7,4.3,20.7,14.2,0,14.4-14.9,14.3-24.8,14.3h-3.7Z"/>
    <polygon class="st0" points="651.8 50.1 655.8 43 642.2 43 642.6 48.8 619.5 96.5 593.6 43 582.9 43 588 53.2 583.5 102.2 577 109.8 594.9 109.8 590.2 102.9 592.5 62.1 617.4 111.7 618.7 111.7 643.2 59.8 646 102.7 641.2 109.8 660.7 109.8 655.7 102.7 651.8 50.1"/>
    <path class="st0" d="M323.9,109.8h22.6c26.3,0,39.5-14.5,39.5-34.1s-13.9-32.6-39.5-32.6h-22.6l4.4,7.1v52.4l-4.4,7.3ZM337.4,58.6c0-3.1,0-6.6.3-9.8h7.9c20.8,0,30.7,10,30.7,27.5s-9.5,27.5-30.7,27.7h-7.8c-.3-2.8-.4-6-.4-9.8v-35.6Z"/>
    <path class="st0" d="M428.2,94.2v-17.4c9.7.2,22.2.8,30.9,1.7l-1.5-6.9-29.5.5v-13.5c0-3.3,0-6.9.3-10.2,11.3.6,22.8,2.2,33,4.6l-3.8-10h-42.9l4.4,7.1v52.4l-4.4,7.3h43.9l3.8-10.4c-10.3,2.4-22.3,4.4-33.8,4.9-.3-2.9-.4-6.2-.4-10.1Z"/>
  </g>
  <g>
    <polygon class="st0" points="350.5 157.4 360.2 157.4 360.2 155.3 350.5 155.3 350.5 149.4 360.7 149.4 360.7 147.3 348.1 147.3 348.1 165.6 361 165.6 361 163.5 350.5 163.5 350.5 157.4"/>
    <path class="st0" d="M458.8,156.2c1.9-.8,3-2.3,3-4.3,0-2.9-2.3-5.1-6.2-5.1s-6.2,2.2-6.2,5.1,1,3.5,3,4.3c-2.3.8-3.5,2.4-3.5,4.5s2.4,5.3,6.7,5.3,6.7-2.3,6.7-5.3-1.2-3.8-3.5-4.5ZM451.6,152.1c0-1.9,1.3-3.1,3.9-3.1s3.9,1.3,3.9,3.1-1.3,3.1-3.9,3.1-3.9-1.3-3.9-3.1ZM455.5,163.9c-2.9,0-4.4-1.4-4.4-3.3s1.5-3.3,4.4-3.3,4.4,1.4,4.4,3.3-1.5,3.3-4.4,3.3Z"/>
    <polygon class="st0" points="416 150 416 152.2 420.9 149.7 420.9 165.6 423.2 165.6 423.2 147.3 421.3 147.3 416 150"/>
    <path class="st0" d="M436.8,146.9c-4,0-6.8,2.6-6.8,6.4s2.9,6.3,6.2,6.3,2.5-.4,3.5-1.2l-5.7,7.2h2.8l3.9-5.2c1.9-2.4,2.7-4.8,2.7-7,0-4-2.9-6.5-6.7-6.5ZM436.8,157.6c-2.8,0-4.5-1.6-4.5-4.3s1.7-4.4,4.5-4.4,4.5,1.7,4.5,4.4-1.7,4.3-4.5,4.3Z"/>
    <path class="st0" d="M375.8,155.6l-3-.7c-2.4-.6-3.3-1.5-3.3-2.9s1.6-3,4.2-3,4,.8,4.9,2.4l1.8-1.1c-.9-1.9-3.3-3.4-6.7-3.4s-6.6,2.2-6.6,5.2,1.7,4.1,5.1,4.9l3,.7c2.3.6,3.3,1.5,3.3,3s-1.7,3.2-4.4,3.2-4.6-1.1-5.6-3.3l-1.9,1.1c1,2.6,3.7,4.3,7.4,4.3s6.8-2.2,6.8-5.4-1.5-4.1-5.1-5Z"/>
    <polygon class="st0" points="467.4 150 467.4 152.2 472.3 149.7 472.3 165.6 474.5 165.6 474.5 147.3 472.7 147.3 467.4 150"/>
    <path class="st0" d="M402.8,162.7c-1,0-1.6.7-1.6,1.5s.6,1.6,1.6,1.6,1.6-.7,1.6-1.6-.6-1.5-1.6-1.5Z"/>
    <polygon class="st0" points="385.1 149.4 391.2 149.4 391.2 165.6 393.6 165.6 393.6 149.4 399.7 149.4 399.7 147.3 385.1 147.3 385.1 149.4"/>
  </g>
</svg>